HIERARCHY
ROOT hip
{
	OFFSET 0.000000 0.000000 0.000000
	CHANNELS 6 Xposition Yposition Zposition Xrotation Zrotation Yrotation 
	JOINT abdomen
	{
		OFFSET 0.000000 3.422050 0.000000
		CHANNELS 3 Xrotation Zrotation Yrotation 
		JOINT chest
		{
			OFFSET 0.000000 8.486693 -0.684411
			CHANNELS 3 Xrotation Zrotation Yrotation 
			JOINT neck
			{
				OFFSET 0.000000 10.266162 -0.273764
				CHANNELS 3 Xrotation Zrotation Yrotation 
				JOINT head
				{
					OFFSET 0.000000 3.148285 0.000000
					CHANNELS 3 Xrotation Zrotation Yrotation 
					End Site
					{
						OFFSET 0.000000 3.148289 0.000000
					}
				}
			}
			JOINT lCollar
			{
				OFFSET 3.422053 6.707223 -0.821293
				CHANNELS 3 Yrotation Zrotation Xrotation 
				JOINT lShldr
				{
					OFFSET 3.285171 0.000000 0.000000
					CHANNELS 3 Zrotation Yrotation Xrotation 
					JOINT lForeArm
					{
						OFFSET 10.129278 0.000000 0.000000
						CHANNELS 3 Yrotation Zrotation Xrotation 
						JOINT lHand
						{
							OFFSET 8.486692 0.000000 0.000000
							CHANNELS 3 Zrotation Yrotation Xrotation 
							End Site
							{
								OFFSET 4.106464 0.000000 0.000000
							}
						}
					}
				}
			}
			JOINT rCollar
			{
				OFFSET -3.558935 6.707223 -0.821293
				CHANNELS 3 Yrotation Zrotation Xrotation 
				JOINT rShldr
				{
					OFFSET -3.148289 0.000000 0.000000
					CHANNELS 3 Zrotation Yrotation Xrotation 
					JOINT rForeArm
					{
						OFFSET -10.266159 0.000000 0.000000
						CHANNELS 3 Yrotation Zrotation Xrotation 
						JOINT rHand
						{
							OFFSET -8.349810 0.000000 0.000000
							CHANNELS 3 Zrotation Yrotation Xrotation 
							End Site
							{
								OFFSET -4.106464 0.000000 0.000000
							}
						}
					}
				}
			}
		}
	}
	JOINT lThigh
	{
		OFFSET 5.338403 -1.642589 1.368821
		CHANNELS 3 Xrotation Zrotation Yrotation 
		JOINT lShin
		{
			OFFSET -2.053232 -20.121670 0.000000
			CHANNELS 3 Xrotation Zrotation Yrotation 
			JOINT lFoot
			{
				OFFSET 0.000000 -19.300380 -1.231939
				CHANNELS 3 Xrotation Yrotation Zrotation 
				End Site
				{
					OFFSET 0.000000 -2.463878 4.653993
				}
			}
		}
	}
	JOINT rThigh
	{
		OFFSET -5.338403 -1.642589 1.368821
		CHANNELS 3 Xrotation Zrotation Yrotation 
		JOINT rShin
		{
			OFFSET 2.053232 -20.121670 0.000000
			CHANNELS 3 Xrotation Zrotation Yrotation 
			JOINT rFoot
			{
				OFFSET 0.000000 -19.300380 -1.231939
				CHANNELS 3 Xrotation Yrotation Zrotation 
				End Site
				{
					OFFSET 0.000000 -2.463878 4.653993
				}
			}
		}
	}
}
MOTION
Frames: 18
Frame Time: 0.033264
19.995884 19.711861 0.572061 -56.996113 -0.004609 -179.997498 36.464756 -0.156873 -0.138621 1.300769 -0.589290 -0.834349 -13.662490 -3.624176 -1.189464 -9.627993 -9.300809 -2.617720 -34.750126 5.618070 -7.438019 4.376470 -41.235519 -4.856769 -3.946841 7.355684 -11.702186 59.577343 -0.423303 -8.827302 29.617704 -3.086576 -7.472759 -5.213819 52.954155 -4.946518 10.712042 -11.684560 -10.637635 -58.802952 -2.560840 0.866100 -71.617111 37.248810 4.688047 92.664597 26.573217 -2.830162 50.659142 4.157670 12.159710 -71.617981 -37.254005 -4.688659 92.665695 -26.573095 2.824815 50.658764 -4.162313 -12.161426 
19.995884 19.711861 0.531361 -56.996113 -0.004609 -179.997498 36.264687 -0.156922 -0.138652 1.802075 -0.589345 -0.834320 -13.970879 -3.655156 -1.188749 -9.887165 -9.378217 -2.616687 -34.459351 5.659254 -7.560519 4.394846 -41.513100 -4.857509 -4.024244 7.494653 -11.697989 59.577343 -0.423303 -8.827302 29.367603 -3.134625 -7.607736 -5.266170 53.166370 -4.983583 10.712042 -11.684560 -10.637635 -58.931782 -2.618900 0.897519 -71.617111 37.248810 4.688047 92.664597 26.573217 -2.830162 50.659142 4.157670 12.159710 -71.617981 -37.254005 -4.688659 92.665695 -26.573095 2.824815 50.658764 -4.162313 -12.161426 
19.995884 19.711861 0.490660 -56.996113 -0.004609 -179.997498 36.064613 -0.156971 -0.138682 2.303341 -0.589400 -0.834292 -14.279261 -3.686129 -1.187867 -10.146390 -9.455619 -2.615300 -34.168468 5.699817 -7.683232 4.413309 -41.790695 -4.858376 -4.101681 7.633614 -11.693599 59.577343 -0.423303 -8.827302 29.117401 -3.182085 -7.742928 -5.319013 53.378563 -5.021160 10.712042 -11.684560 -10.637635 -59.060646 -2.676889 0.929070 -71.617111 37.248810 4.688047 92.664597 26.573217 -2.830162 50.659142 4.157670 12.159710 -71.617981 -37.254005 -4.688659 92.665695 -26.573095 2.824815 50.658764 -4.162313 -12.161426 
19.995884 19.711861 0.449960 -56.996113 -0.004609 -179.997498 35.864540 -0.157020 -0.138713 2.804551 -0.589454 -0.834265 -14.587620 -3.717094 -1.186818 -10.405652 -9.533008 -2.613557 -33.877506 5.739760 -7.806157 4.431855 -42.068268 -4.859365 -4.179155 7.772569 -11.689020 59.577343 -0.423303 -8.827302 28.867075 -3.228953 -7.878325 -5.372355 53.590736 -5.059253 10.712042 -11.684560 -10.637635 -59.189552 -2.734807 0.960752 -71.617111 37.248810 4.688047 92.664597 26.573217 -2.830162 50.659142 4.157670 12.159710 -71.617981 -37.254005 -4.688659 92.665695 -26.573095 2.824815 50.658764 -4.162313 -12.161426 
19.995884 19.711861 0.409259 -56.996113 -0.004609 -179.997498 35.664474 -0.157070 -0.138743 3.305683 -0.589509 -0.834238 -14.895960 -3.748049 -1.185602 -10.664958 -9.610381 -2.611459 -33.586449 5.779078 -7.929283 4.450489 -42.345833 -4.860479 -4.256664 7.911514 -11.684249 59.577343 -0.423303 -8.827302 28.616640 -3.275227 -8.013927 -5.426204 53.802891 -5.097873 10.712042 -11.684560 -10.637635 -59.318501 -2.792653 0.992567 -71.617111 37.248810 4.688047 92.664597 26.573217 -2.830162 50.659142 4.157670 12.159710 -71.617981 -37.254005 -4.688659 92.665695 -26.573095 2.824815 50.658764 -4.162313 -12.161426 
19.995884 19.711861 0.368559 -56.996113 -0.004609 -179.997498 35.464417 -0.157119 -0.138772 3.806719 -0.589565 -0.834211 -15.204280 -3.778996 -1.184219 -10.924298 -9.687737 -2.609005 -33.295300 5.817768 -8.052607 4.469212 -42.623371 -4.861721 -4.334210 8.050452 -11.679289 59.577343 -0.423303 -8.827302 28.366098 -3.320906 -8.149726 -5.480565 54.014984 -5.137024 10.712042 -11.684560 -10.637635 -59.447475 -2.850426 1.024512 -71.617111 37.248810 4.688047 92.664597 26.573217 -2.830162 50.659142 4.157670 12.159710 -71.617981 -37.254005 -4.688659 92.665695 -26.573095 2.824815 50.658764 -4.162313 -12.161426 
19.995884 19.711861 0.327858 -56.996113 -0.004609 -179.997498 35.264366 -0.157169 -0.138802 4.307642 -0.589620 -0.834185 -15.512568 -3.809928 -1.182670 -11.183681 -9.765073 -2.606196 -33.004078 5.855833 -8.176126 4.488025 -42.900890 -4.863092 -4.411792 8.189377 -11.674133 59.577343 -0.423303 -8.827302 28.115454 -3.365988 -8.285722 -5.535457 54.227093 -5.176724 10.712042 -11.684560 -10.637635 -59.576496 -2.908126 1.056589 -71.617111 37.248810 4.688047 92.664597 26.573217 -2.830162 50.659142 4.157670 12.159710 -71.617981 -37.254005 -4.688659 92.665695 -26.573095 2.824815 50.658764 -4.162313 -12.161426 
19.995884 19.711861 0.287158 -56.996113 -0.004609 -179.997498 35.064323 -0.157218 -0.138832 4.808428 -0.589676 -0.834159 -15.820827 -3.840849 -1.180954 -11.443099 -9.842391 -2.603032 -32.712784 5.893269 -8.299835 4.506933 -43.178406 -4.864596 -4.489412 8.328291 -11.668788 59.577343 -0.423303 -8.827302 27.864725 -3.410474 -8.421913 -5.590879 54.439144 -5.216974 10.712042 -11.684560 -10.637635 -59.705551 -2.965753 1.088796 -71.617111 37.248810 4.688047 92.664597 26.573217 -2.830162 50.659142 4.157670 12.159710 -71.617981 -37.254005 -4.688659 92.665695 -26.573095 2.824815 50.658764 -4.162313 -12.161426 
19.995884 19.711861 0.246457 -56.996113 -0.004609 -179.997498 34.864292 -0.157268 -0.138861 5.309064 -0.589732 -0.834134 -16.129040 -3.871754 -1.179072 -11.702548 -9.919681 -2.599511 -32.421429 5.930074 -8.423727 4.525933 -43.455875 -4.866230 -4.567072 8.467198 -11.663253 59.577343 -0.423303 -8.827302 27.613884 -3.454358 -8.558285 -5.646845 54.651169 -5.257786 10.712042 -11.684560 -10.637635 -59.834637 -3.023305 1.121135 -71.617111 37.248810 4.688047 92.664597 26.573217 -2.830162 50.659142 4.157670 12.159710 -71.617981 -37.254005 -4.688659 92.665695 -26.573095 2.824815 50.658764 -4.162313 -12.161426 
19.995884 19.711861 0.205757 -56.996113 -0.004609 -179.997498 34.664276 -0.157318 -0.138890 5.809526 -0.589788 -0.834110 -16.437218 -3.902644 -1.177023 -11.962029 -9.996944 -2.595635 -32.130013 5.966248 -8.547798 4.545031 -43.733311 -4.868000 -4.644771 8.606091 -11.657525 59.577343 -0.423303 -8.827302 27.362968 -3.497642 -8.694841 -5.703362 54.863136 -5.299169 10.712042 -11.684560 -10.637635 -59.963741 -3.080782 1.153603 -71.617111 37.248810 4.688047 92.664597 26.573217 -2.830162 50.659142 4.157670 12.159710 -71.617981 -37.254005 -4.688659 92.665695 -26.573095 2.824815 50.658764 -4.162313 -12.161426 
19.995884 19.711861 0.165056 -56.996113 -0.004609 -179.997498 34.464275 -0.157368 -0.138919 6.309796 -0.589845 -0.834086 -16.745352 -3.933517 -1.174808 -12.221541 -10.074177 -2.591403 -31.838531 6.001787 -8.672040 4.564229 -44.010723 -4.869907 -4.722508 8.744967 -11.651602 59.577335 -0.423303 -8.827302 27.111971 -3.540323 -8.831576 -5.760443 55.075085 -5.341134 10.712042 -11.684560 -10.637635 -60.092907 -3.138185 1.186203 -71.617111 37.248810 4.688047 92.664597 26.573217 -2.830162 50.659142 4.157670 12.159710 -71.617981 -37.254005 -4.688659 92.665695 -26.573095 2.824815 50.658764 -4.162313 -12.161426 
19.995884 19.711861 0.124356 -56.996113 -0.004609 -179.997498 34.264271 -0.157418 -0.138948 6.809859 -0.589901 -0.834062 -17.053432 -3.964370 -1.172428 -12.481081 -10.151381 -2.586816 -31.547009 6.036693 -8.796454 4.583525 -44.288094 -4.871952 -4.800288 8.883836 -11.645490 59.577335 -0.423303 -8.827302 26.860891 -3.582400 -8.968487 -5.818097 55.286991 -5.383689 10.712042 -11.684560 -10.637635 -60.222107 -3.195513 1.218933 -71.617111 37.248810 4.688047 92.664597 26.573217 -2.830162 50.659142 4.157670 12.159710 -71.617981 -37.254005 -4.688659 92.665695 -26.573095 2.824815 50.658764 -4.162313 -12.161426 
19.995884 19.711861 0.083655 -56.996113 -0.004609 -179.997498 34.064293 -0.157468 -0.138977 7.309690 -0.589958 -0.834039 -17.361452 -3.995203 -1.169881 -12.740646 -10.228552 -2.581873 -31.255438 6.070963 -8.921032 4.602926 -44.565426 -4.874137 -4.878107 9.022683 -11.639180 59.577343 -0.423303 -8.827302 26.609732 -3.623871 -9.105564 -5.876331 55.498844 -5.426846 10.712042 -11.684560 -10.637635 -60.351334 -3.252764 1.251792 -71.617111 37.248810 4.688047 92.664597 26.573217 -2.830162 50.659142 4.157670 12.159710 -71.617981 -37.254005 -4.688659 92.665695 -26.573095 2.824815 50.658764 -4.162313 -12.161426 
19.995884 19.711861 0.042954 -56.996113 -0.004609 -179.997498 33.864326 -0.157518 -0.139005 7.809276 -0.590015 -0.834017 -17.669418 -4.026015 -1.167169 -13.000237 -10.305683 -2.576575 -30.963829 6.104595 -9.045766 4.622433 -44.842731 -4.876467 -4.955969 9.161519 -11.632680 59.577343 -0.423303 -8.827302 26.358505 -3.664737 -9.242810 -5.935160 55.710659 -5.470615 10.712042 -11.684560 -10.637635 -60.480595 -3.309938 1.284782 -71.617111 37.248810 4.688047 92.664597 26.573217 -2.830162 50.659142 4.157670 12.159710 -71.617981 -37.254005 -4.688659 92.665695 -26.573095 2.824815 50.658764 -4.162313 -12.161426 
19.995884 19.711861 0.002254 -56.996113 -0.004609 -179.997498 33.664379 -0.157569 -0.139034 8.308593 -0.590072 -0.833994 -17.977325 -4.056806 -1.164291 -13.259847 -10.382776 -2.570921 -30.672188 6.137588 -9.170652 4.642046 -45.119976 -4.878941 -5.033872 9.300335 -11.625983 59.577343 -0.423303 -8.827302 26.107210 -3.704994 -9.380216 -5.994595 55.922436 -5.515008 10.712042 -11.684560 -10.637635 -60.609898 -3.367037 1.317901 -71.617111 37.248810 4.688047 92.664597 26.573217 -2.830162 50.659142 4.157670 12.159710 -71.617981 -37.254005 -4.688659 92.665695 -26.573095 2.824815 50.658764 -4.162313 -12.161426 
19.995884 19.711861 -0.038446 -56.996105 -0.004609 -179.997498 33.464443 -0.157619 -0.139062 8.807624 -0.590129 -0.833973 -18.285158 -4.087571 -1.161248 -13.519481 -10.459829 -2.564912 -30.380526 6.169943 -9.295691 4.661768 -45.397167 -4.881559 -5.111819 9.439138 -11.619098 59.577343 -0.423303 -8.827302 25.855852 -3.744642 -9.517777 -6.054643 56.134159 -5.560034 10.712042 -11.684560 -10.637635 -60.739235 -3.424057 1.351149 -71.617111 37.248810 4.688047 92.664597 26.573217 -2.830162 50.659142 4.157670 12.159710 -71.617981 -37.254005 -4.688659 92.665695 -26.573095 2.824815 50.658764 -4.162313 -12.161426 
19.995884 19.711861 -0.079147 -56.996105 -0.004609 -179.997498 33.264542 -0.157670 -0.139090 9.306352 -0.590187 -0.833952 -18.592926 -4.118312 -1.158041 -13.779125 -10.536836 -2.558547 -30.088835 6.201656 -9.420867 4.681602 -45.674309 -4.884327 -5.189810 9.577921 -11.612016 59.577343 -0.423303 -8.827302 25.604439 -3.783679 -9.655493 -6.115317 56.345829 -5.605704 10.712042 -11.684560 -10.637635 -60.868603 -3.481000 1.384527 -71.617111 37.248810 4.688047 92.664597 26.573217 -2.830162 50.659142 4.157670 12.159710 -71.617981 -37.254005 -4.688659 92.665695 -26.573095 2.824815 50.658764 -4.162313 -12.161426 
19.995884 19.711861 -0.119848 -56.996105 -0.004609 -179.997498 33.064651 -0.157720 -0.139117 9.804756 -0.590244 -0.833931 -18.900612 -4.149025 -1.154669 -14.038791 -10.613796 -2.551828 -29.797134 6.232730 -9.546186 4.701552 -45.951405 -4.887249 -5.267846 9.716687 -11.604743 59.577343 -0.423303 -8.827302 25.352970 -3.822106 -9.793356 -6.176627 56.557438 -5.652029 10.712042 -11.684560 -10.637635 -60.998001 -3.537864 1.418033 -71.617111 37.248810 4.688047 92.664597 26.573217 -2.830162 50.659142 4.157670 12.159710 -71.617981 -37.254005 -4.688659 92.665695 -26.573095 2.824815 50.658764 -4.162313 -12.161426 
